<svg xmlns="http://www.w3.org/2000/svg" viewBox="0 0 754 434" xml:space="preserve"><path fill="#FEFEFE" d="M471 435H1V1h754v434H471m-50.169-72.404v49.183h39.338v-5.593c0-41.498-.224-82.997.174-124.491.088-9.199 1.426-18.636 3.871-27.5 3.227-11.693 12.124-17.342 23.91-17.308 11.78.034 20.826 5.92 24.425 16.938 1.939 5.932 3.494 12.301 3.546 18.487.375 44.66.322 89.324.404 133.986.003 1.797 0 3.594 0 5.41h39.608c.175-.6.347-.911.346-1.223-.16-49.658.376-99.332-.769-148.968-.68-29.516-19.042-53.073-49.185-58.165-22.178-3.746-42.11.29-57.996 17.48-2.538 2.745-4.784 5.761-7.482 9.038-11.899-20.909-30.777-27.771-52.817-27.75-21.976.02-40.393 8.405-54.035 25.745-.74-.43-.932-.474-.97-.575-.399-1.094-.797-2.19-1.152-3.299-7.325-22.935-9.283-46.297-5.068-70.03 7.775-43.778 32.341-74.952 73.176-91.717 38.248-15.702 77.57-15.608 116.586-1.376 18.337 6.689 34.16 17.384 46.993 31.999 16.56 18.86 26.288 41.123 29.855 65.918 3.486 24.236 2.465 48.245-6.626 71.279-3.885 9.844-9.014 19.197-13.611 28.843l34.485 16.748c.481-.648.795-1.027 1.06-1.436 27.26-42.004 33.423-87.73 23.098-135.983-7.015-32.783-22.734-60.985-47.958-83.429-25.658-22.829-56.057-35.34-89.788-40.181-42.866-6.153-84.389-2.392-123.527 17.584-27.875 14.228-49.8 34.86-65.127 62.198-18.212 32.487-23.89 67.44-19.506 104.195 2.776 23.271 9.164 45.36 22.844 64.736 3.697 5.236 6.182 10.241 5.19 16.877-.583 3.897-.076 7.987.181 11.975 1.225 18.993 6.173 36.64 18.37 51.805 17.013 21.152 49.572 29.665 74.16 18.783 4.965-2.197 9.241-5.955 13.997-9.1v8.917m-177.695 15.97c2.498-4.702 5.314-9.267 7.44-14.132 10.362-23.704 12.538-48.545 9.148-73.906-3.303-24.703-13.983-45.842-33.399-61.75-25.781-21.124-56.603-27.636-88.856-27.232-18.56.233-37.105 3.186-55.61 5.32-7.835.903-15.548 2.848-23.85 4.42.35-4.715.682-8.826.956-12.941 2.142-32.108 8.698-62.99 25.804-90.812 11.287-18.357 25.979-33.438 45.227-43.406 27.79-14.39 57.4-16.201 87.566-10.452 11.156 2.126 21.923 6.298 33.35 9.68l18.97-30.944c-1.453-.805-2.73-1.553-4.041-2.232-37.78-19.548-77.538-22.696-118.49-13.497-41.737 9.375-73.707 32.8-96.427 68.99-18.197 28.988-26.786 61.17-30.692 94.682-3.797 32.565-2.992 65.197 1.832 97.643 3.89 26.16 10.67 51.484 23.535 74.856 13.695 24.88 33.096 43.601 59.353 54.9 19.86 8.545 40.642 10.827 62.058 9.549 30.786-1.838 57.03-12.44 76.126-38.735M735.846 40.5V18.16h-39.799V411.64h39.799V40.5z"/><path fill="#010101" d="M420.831 362.116v-8.437c-4.756 3.145-9.032 6.903-13.998 9.1-24.587 10.882-57.146 2.369-74.16-18.783-12.196-15.165-17.144-32.812-18.369-51.805-.257-3.988-.764-8.078-.181-11.975.992-6.636-1.493-11.64-5.19-16.877-13.68-19.377-20.068-41.465-22.844-64.736-4.384-36.755 1.294-71.708 19.506-104.195 15.326-27.337 37.252-47.97 65.127-62.198 39.138-19.976 80.66-23.737 123.527-17.584 33.73 4.842 64.13 17.352 89.788 40.181 25.224 22.444 40.943 50.646 47.958 83.43 10.325 48.252 4.162 93.978-23.097 135.982-.266.41-.58.788-1.06 1.436-11.822-5.74-23.458-11.392-34.486-16.748 4.597-9.646 9.726-19 13.611-28.843 9.09-23.034 10.112-47.043 6.626-71.279-3.567-24.795-13.295-47.058-29.855-65.918-12.833-14.615-28.656-25.31-46.993-32-39.016-14.231-78.338-14.325-116.586 1.377-40.835 16.765-65.401 47.94-73.176 91.718-4.215 23.732-2.257 47.094 5.068 70.029.355 1.11.753 2.205 1.153 3.3.037.1.23.144.969.574 13.642-17.34 32.06-25.725 54.035-25.746 22.04-.02 40.918 6.842 52.817 27.75 2.698-3.276 4.944-6.292 7.482-9.038 15.886-17.19 35.818-21.225 57.996-17.479 30.143 5.092 48.505 28.65 49.185 58.165 1.145 49.636.61 99.31.769 148.968 0 .312-.171.623-.346 1.223h-39.608c0-1.816.003-3.613 0-5.41-.082-44.662-.029-89.326-.404-133.986-.052-6.186-1.607-12.555-3.546-18.487-3.599-11.017-12.645-16.904-24.425-16.938-11.786-.034-20.683 5.615-23.91 17.308-2.445 8.864-3.783 18.301-3.871 27.5-.398 41.494-.174 82.993-.174 124.491v5.593H420.83v-49.663m-54.394-118.24c-3.48 4.995-8.078 9.554-10.233 15.068-7.01 17.94-5.91 36.29.575 54.1 4.868 13.372 15.841 19.31 29.572 19.757 12.693.413 23.057-4.455 29.44-15.96 7.508-13.532 8.129-28.227 6.682-43.168-.924-9.553-3.373-18.603-9.57-26.273-10.03-12.417-33.828-14.166-46.466-3.524z"/><path fill="#C47034" d="M242.955 378.879c-18.914 25.983-45.16 36.585-75.945 38.423-21.416 1.278-42.199-1.004-62.058-9.55-26.257-11.298-45.658-30.02-59.353-54.9-12.865-23.37-19.645-48.695-23.535-74.855-4.824-32.446-5.629-65.078-1.832-97.643 3.906-33.513 12.495-65.694 30.692-94.682 22.72-36.19 54.69-59.615 96.428-68.99 40.951-9.199 80.709-6.051 118.489 13.497 1.312.68 2.588 1.427 4.041 2.232l-18.97 30.943c-11.427-3.381-22.194-7.553-33.35-9.679-30.166-5.75-59.776-3.938-87.566 10.452-19.248 9.968-33.94 25.05-45.227 43.406-17.106 27.821-23.662 58.704-25.804 90.812-.274 4.115-.606 8.226-.956 12.94 8.302-1.571 16.015-3.516 23.85-4.419 18.505-2.134 37.05-5.087 55.61-5.32 32.253-.404 63.075 6.108 88.856 27.232 19.416 15.908 30.096 37.047 33.399 61.75 3.39 25.36 1.214 50.202-9.147 73.906-2.127 4.865-4.943 9.43-7.622 14.445m-73.884-1.074c1.635-.301 3.28-.556 4.905-.909 16.792-3.656 30.023-12.184 38.14-27.781 5.747-11.04 7.992-22.872 7.966-35.182-.04-19.909-4.323-38.345-19.173-52.894-14.287-13.997-32.019-19.77-51.466-21.204-20.862-1.538-41.587.164-62.183 3.393-9.45 1.482-18.793 3.652-28.305 5.534.398 4.608.713 8.406 1.055 12.202 2.303 25.552 7.43 50.42 19.615 73.248 8.476 15.88 20.235 28.765 36.88 36.685 16.524 7.862 33.85 9.176 52.566 6.908z"/><path fill="#C57034" d="M735.846 41V411.64h-39.799V18.16h39.799V41z"/><path fill="#FDFDFD" d="M366.736 243.673c12.34-10.439 36.137-8.69 46.168 3.727 6.196 7.67 8.645 16.72 9.57 26.273 1.446 14.941.825 29.636-6.683 43.169-6.383 11.504-16.747 16.372-29.44 15.96-13.73-.448-24.704-6.386-29.572-19.759-6.484-17.809-7.585-36.158-.575-54.1 2.155-5.513 6.753-10.072 10.532-15.27z"/><path fill="#FFFEFE" d="M168.633 377.868c-18.278 2.205-35.604.891-52.128-6.97-16.645-7.92-28.404-20.806-36.88-36.686-12.185-22.828-17.312-47.696-19.615-73.248-.342-3.796-.657-7.594-1.055-12.202 9.512-1.882 18.854-4.052 28.305-5.534 20.596-3.229 41.32-4.931 62.183-3.393 19.447 1.433 37.18 7.207 51.466 21.204 14.85 14.55 19.132 32.985 19.173 52.894.026 12.31-2.22 24.141-7.965 35.182-8.118 15.597-21.349 24.125-38.141 27.781-1.624.353-3.27.608-5.343.972z"/></svg>